# xmcd
#
# Track frame offsets:
#	150
#	16598
#	31965
#	42762
#	61106
#	80192
#	99377
#	111872
#	132851
#	151045
#
# Disc length: 2206 seconds
#
# Revision: 1
# Processed by: cddbd v1.5.2PL0 Copyright (c) Steve Scherf et al.
# Submitted via: audiograbber 1.83.01
#
DISCID=6c089c0a
DTITLE=Nicole Dutton - Faithful One
DYEAR=2011
DGENRE=Gospel
TTITLE0=Faithful One
TTITLE1=He Knows My Name
TTITLE2=Joy Unspeakable
TTITLE3=I Will Go On
TTITLE4=Lord, Don't Let Me Fail You
TTITLE5=His Life for Mine
TTITLE6=Let the Lower Lights Be Burning
TTITLE7=Jesus Holds Your Hand
TTITLE8=It's Unlike Me
TTITLE9=Tis So Sweet to Trust in Jesus
EXTD=All proceeds go to the efforts of Worldwide Missionary Outreach (http://ww
EXTD=w.wmo.org)
EXTT0=
EXTT1=
EXTT2=
EXTT3=
EXTT4=
EXTT5=
EXTT6=
EXTT7=
EXTT8=
EXTT9=
PLAYORDER=
